<svg viewBox="0 0 24 24" fill="#3B82F6" xmlns="http://www.w3.org/2000/svg"><path d="M18.5 6H5.5C3.6 6 2 7.6 2 9.5V17C2 17.6 2.4 18 3 18H4C4.6 18 5 17.6 5 17V16H19V17C19 17.6 19.4 18 20 18H21C21.6 18 22 17.6 22 17V9.5C22 7.6 20.4 6 18.5 6ZM5.5 8H18.5C19.3 8 20 8.7 20 9.5V11H4V9.5C4 8.7 4.7 8 5.5 8ZM6.5 14C5.7 14 5 13.3 5 12.5C5 11.7 5.7 11 6.5 11C7.3 11 8 11.7 8 12.5C8 13.3 7.3 14 6.5 14ZM17.5 14C16.7 14 16 13.3 16 12.5C16 11.7 16.7 11 17.5 11C18.3 11 19 11.7 19 12.5C19 13.3 18.3 14 17.5 14Z"/></svg>
