<svg viewBox="0 0 24 24" fill="#EC4899" xmlns="http://www.w3.org/2000/svg"><path d="M16 4C12.5 4 10 6.5 10 10C10 10.5 10.1 11 10.2 11.5C9.6 11.2 9 11 8.5 11C5.5 11 3 13.5 3 16.5C3 19.5 5.5 22 8.5 22C11.5 22 14 19.5 14 16.5C14 16 13.8 15.4 13.5 15C15 14.9 16 13.6 16 12V10C16 10 19 10 19 13C19 13.6 19.4 14 20 14C20.6 14 21 13.6 21 13C21 8 18 4 16 4ZM8.5 20C6.6 20 5 18.4 5 16.5C5 14.6 6.6 13 8.5 13C10.4 13 12 14.6 12 16.5C12 18.4 10.4 20 8.5 20ZM14 10C14 8.9 14.9 8 16 8C17.1 8 18 8.9 18 10V11C18 11.6 17.6 12 17 12C16.4 12 16 11.6 16 11V10Z"/></svg>
