<svg viewBox="0 0 24 24" fill="#EC4899" xmlns="http://www.w3.org/2000/svg"><path d="M11.5 12C12.88 12 14 10.88 14 9.5C14 8.12 12.88 7 11.5 7C10.12 7 9 8.12 9 9.5C9 10.88 10.12 12 11.5 12ZM16.5 12C17.88 12 19 10.88 19 9.5C19 8.12 17.88 7 16.5 7C15.12 7 14 8.12 14 9.5C14 10.88 15.12 12 16.5 12ZM7.5 14C8.88 14 10 12.88 10 11.5C10 10.12 8.88 9 7.5 9C6.12 9 5 10.12 5 11.5C5 12.88 6.12 14 7.5 14ZM12 14.5L7.5 22H16.5L12 14.5ZM16.5 14C17.88 14 19 12.88 19 11.5C19 10.12 17.88 9 16.5 9C15.12 9 14 10.12 14 11.5C14 12.88 15.12 14 16.5 14ZM11.5 14C12.88 14 14 12.88 14 11.5C14 10.12 12.88 9 11.5 9C10.12 9 9 10.12 9 11.5C9 12.88 10.12 14 11.5 14Z"/></svg>
